<svg xmlns="http://www.w3.org/2000/svg" x="0px" y="0px" width="100" height="100" viewBox="0,0,256,256">
<g fill="#ffffff" fill-rule="nonzero" stroke="none" stroke-width="1" stroke-linecap="butt" stroke-linejoin="miter" stroke-miterlimit="10" stroke-dasharray="" stroke-dashoffset="0" font-family="none" font-weight="none" font-size="none" text-anchor="none" style="mix-blend-mode: normal"><g transform="scale(5.12,5.12)"><path d="M14,4c-5.51133,0 -10,4.48867 -10,10v22c0,5.51133 4.48867,10 10,10h22c5.51133,0 10,-4.48867 10,-10v-22c0,-5.51133 -4.48867,-10 -10,-10zM14,6h22c4.43067,0 8,3.56933 8,8v2h-38v-2c0,-4.43067 3.56933,-8 8,-8zM6,18h38v8h-38zM8,20v2h2v-2zM12,20v2h2v-2zM16,20v2h2v-2zM20,20v2h2v-2zM24,20v2h2v-2zM28,20v2h2v-2zM32,20v2h2v-2zM36,20v2h2v-2zM40,20v2h2v-2zM6,28h38v7h-38zM6.20117,37h37.59766c-0.51032,3.93252 -3.72329,7 -7.79883,7h-22c-4.07554,0 -7.28851,-3.06748 -7.79883,-7z"></path></g></g>
</svg>